<?xml version="1.0" encoding="utf-8"?>
<!-- Generator: Adobe Illustrator 16.0.0, SVG Export Plug-In . SVG Version: 6.00 Build 0)  -->
<!DOCTYPE svg PUBLIC "-//W3C//DTD SVG 1.1//EN" "http://www.w3.org/Graphics/SVG/1.1/DTD/svg11.dtd">
<svg version="1.1" id="Layer_1" xmlns="http://www.w3.org/2000/svg" xmlns:xlink="http://www.w3.org/1999/xlink" x="0px" y="0px"
	 width="245.982px" height="254.987px" viewBox="0 0 245.982 254.987" enable-background="new 0 0 245.982 254.987"
	 xml:space="preserve">
<g>
	<path fill="#2F2F51" stroke="#2F2F51" stroke-width="5.4159" stroke-miterlimit="10" d="M79.932,46.862
		c3.465,0,6.271,2.811,6.271,6.271c0,3.469-2.807,6.281-6.271,6.281c-3.469,0-6.271-2.813-6.271-6.281
		C73.66,49.673,76.463,46.862,79.932,46.862z"/>
	<path fill="#2F2F51" stroke="#2F2F51" stroke-width="5.4159" stroke-miterlimit="10" d="M37.066,121.323
		c3.467,0,6.285,2.811,6.285,6.281s-2.818,6.279-6.285,6.279c-3.473,0-6.271-2.809-6.271-6.279S33.594,121.323,37.066,121.323z"/>
	<path fill="#2F2F51" stroke="#2F2F51" stroke-width="5.4159" stroke-miterlimit="10" d="M80.127,195.681
		c3.465,0,6.279,2.814,6.279,6.281c0,3.471-2.814,6.279-6.279,6.279c-3.455,0-6.277-2.809-6.277-6.279
		C73.85,198.495,76.672,195.681,80.127,195.681z"/>
	<path fill="none" stroke="#2F2F51" stroke-width="5.8603" stroke-miterlimit="10" d="M198.645,39.106
		c-17.084-14.627-37.191-23.428-57.893-26.604C102.301,6.601,61.766,20.11,34.604,51.845
		C-7.18,100.655-1.473,174.097,47.344,215.878c17.086,14.631,37.186,23.432,57.896,26.607c38.447,5.902,78.982-7.617,106.137-39.34
		C253.162,154.327,247.455,80.888,198.645,39.106z M221.189,161.243l-35.551-12.258c4.789-13.975,4.732-29.127,0.006-42.949
		l35.525-12.223c2.803,8.201,4.59,16.814,5.291,25.697C227.57,133.882,225.736,148.015,221.189,161.243z M223.191,92.819v-0.004
		V92.819z M201.246,59.394l-28.313,24.592c-2.1-2.398-4.379-4.678-6.865-6.813c-9.012-7.703-19.479-12.551-30.334-14.666
		l7.141-36.682c17.52,3.393,33.904,11.215,47.588,22.918C194.336,52.062,197.934,55.624,201.246,59.394z M87.691,29.974
		c5.037-1.82,10.215-3.225,15.465-4.232l7.131,36.766c-13.961,2.723-27.15,9.926-37.195,21.461L44.756,59.323
		C56.355,46.011,71.174,35.929,87.691,29.974z M24.799,93.741l35.547,12.262c-4.777,13.969-4.721,29.117-0.004,42.943
		l-35.547,12.236c-2.797-8.195-4.588-16.797-5.266-25.66C18.408,121.147,20.238,106.983,24.799,93.741z M44.693,195.64
		l28.361-24.643c2.096,2.4,4.385,4.682,6.877,6.811c9,7.705,19.461,12.557,30.316,14.67l-7.178,36.891
		c-17.527-3.416-33.893-11.324-47.564-23.023C51.613,203.011,47.998,199.431,44.693,195.64z M158.279,225.122
		c-5.02,1.813-10.186,3.229-15.43,4.246l-7.141-36.893c13.953-2.723,27.133-9.93,37.191-21.455l28.346,24.646
		C189.639,208.995,174.811,219.171,158.279,225.122z"/>
	<path fill="#2F2F51" stroke="#2F2F51" stroke-width="5.4159" stroke-miterlimit="10" d="M166.057,195.569
		c3.469,0,6.285,2.809,6.285,6.277s-2.816,6.279-6.285,6.279c-3.471,0-6.271-2.811-6.271-6.279S162.586,195.569,166.057,195.569z"/>
	<path fill="#2F2F51" stroke="#2F2F51" stroke-width="5.4159" stroke-miterlimit="10" d="M208.916,121.101
		c3.463,0,6.279,2.805,6.279,6.275c0,3.473-2.816,6.277-6.279,6.277c-3.471,0-6.271-2.805-6.271-6.277
		C202.645,123.905,205.445,121.101,208.916,121.101z"/>
	<path fill="#2F2F51" stroke="#2F2F51" stroke-width="5.4159" stroke-miterlimit="10" d="M165.855,46.743
		c3.475,0,6.279,2.809,6.279,6.279c0,3.469-2.805,6.277-6.279,6.277c-3.465,0-6.279-2.809-6.279-6.277
		C159.576,49.552,162.391,46.743,165.855,46.743z"/>
	<g>
		<path fill="#2F2F51" d="M97.139,64.899c-8.406,3.412-15.959,8.426-22.428,14.902c-6.479,6.467-11.484,14.018-14.9,22.424
			c-3.299,8.137-4.965,16.723-4.965,25.525c0,8.807,1.666,17.393,4.965,25.516c3.416,8.412,8.422,15.965,14.9,22.426
			c6.469,6.479,14.021,11.49,22.428,14.908c8.135,3.291,16.705,4.959,25.521,4.959c8.803,0,17.387-1.676,25.523-4.959
			c8.406-3.418,15.945-8.43,22.42-14.908c6.48-6.461,11.492-14.012,14.898-22.426c3.293-8.123,4.961-16.709,4.961-25.516
			c0-8.803-1.668-17.389-4.961-25.525c-3.406-8.406-8.426-15.957-14.898-22.424c-6.475-6.477-14.008-11.49-22.42-14.902
			c-8.137-3.285-16.721-4.963-25.523-4.963C113.844,59.937,105.273,61.614,97.139,64.899z M71.797,156.298
			c-3.27-2.051-6.285-4.414-8.943-7.199c-4.074-11.453-4.766-23.846-2.066-35.619c1.279-2.502,2.705-4.898,4.342-7.207
			c0.502-0.705,0.977-1.447,1.516-2.139l15.303,9.061c0,0.113,0,0.248,0,0.377c-0.049,8.234,0.795,16.402,2.451,24.453
			c0.006,0.037,0.023,0.066,0.029,0.098l-11.875,18.607C72.291,156.595,72.043,156.452,71.797,156.298z M117.295,187.749
			c2.637,1.352,5.352,2.488,8.15,3.412c-11.867,0.521-23.832-2.258-34.41-8.332l25.65,4.57
			C116.879,187.521,117.088,187.642,117.295,187.749z M117.199,183.126l-30.275-5.408c-3.541-4.287-6.727-8.842-9.467-13.697
			c-0.684-1.246-1.473-2.449-2.064-3.742L87.25,141.69c0.258,0.072,0.549,0.139,0.889,0.229c7.424,1.99,14.963,3.395,22.563,4.502
			c0.449,0.055,0.824,0.117,1.133,0.152l14.213,24.572c-2.463,3.463-4.959,6.912-7.504,10.328
			C118.113,182.044,117.674,182.573,117.199,183.126z M167.566,172.651c-2.404,2.418-4.969,4.59-7.645,6.521
			c-0.453-3.543-1.223-7.016-2.305-10.42l15.172-28.289c4.172-1.904,8.203-4.059,11.957-6.734c0.479-0.342,0.889-0.727,1.197-1.156
			C184.852,147.194,178.727,161.493,167.566,172.651z M166.893,135.968c0.561,1.074,1.121,2.164,1.668,3.266l-14.639,27.324
			c-0.082,0.012-0.164,0.039-0.248,0.045c-7.916,1.477-15.9,2.26-23.941,2.307l-14.617-25.277c2.26-4.223,4.521-8.465,6.756-12.711
			c1.525-2.875,3.012-5.777,4.492-8.666l30.254-3.107C160.33,124.583,163.844,130.136,166.893,135.968z M160.752,103.558
			c-1.436,3.793-2.977,7.543-4.494,11.307l-29.484,3.021c-0.34-0.461-0.707-0.924-1.09-1.357c-3.49-3.941-6.979-7.857-10.479-11.783
			c0.031-0.039,0.068-0.068,0.096-0.104c-1.406-1.41-2.828-2.82-4.242-4.232l8.215-24.699c0.561-0.15,1.125-0.273,1.699-0.34
			c4.465-0.455,8.93-0.965,13.402-1.23c2.732-0.141,5.488-0.234,8.273-0.043l20.303,22.891
			C162.246,99.183,161.572,101.396,160.752,103.558z M167.566,82.837c5.598,5.602,9.934,12,12.998,18.826
			c-3.791-2.602-7.848-4.756-12.117-6.5c-0.658-0.275-1.334-0.523-2.027-0.76l-19.994-22.521c0.152-0.967,0.229-1.943,0.254-2.924
			C154.273,72.056,161.408,76.681,167.566,82.837z M102.318,67.769c0.084,0.072,0.121,0.121,0.158,0.127
			c4.578,1.574,8.729,3.902,12.645,6.66l-7.67,23.086c-0.037,0.012-0.082,0.023-0.105,0.033c-1.582,0.645-3.168,1.229-4.719,1.936
			c-6.363,2.887-12.566,6.086-18.4,9.922l-15.131-8.939c0.023-0.471,0.105-0.955,0.262-1.387c1.021-2.699,2.018-5.41,3.17-8.063
			c0.879-2.051,1.895-4.033,2.984-5.951c0.717-0.803,1.467-1.58,2.236-2.355c7.186-7.18,15.674-12.275,24.717-15.287
			C102.408,67.61,102.365,67.698,102.318,67.769z"/>
	</g>
</g>
</svg>
